<svg width="32" height="33" viewBox="0 0 32 33" fill="none" xmlns="http://www.w3.org/2000/svg">
<path fill-rule="evenodd" clip-rule="evenodd" d="M13.6784 4.77723C13.4166 4.87905 13.2857 5.02449 13.3148 5.18448C13.3584 5.43175 8.02036 12.6461 6.65314 17.0241C6.23133 18.3913 6.91496 18.5804 10.0276 17.9841C11.9185 17.6204 11.8457 17.2423 10.5948 20.7622C9.664 23.3512 8.98036 25.5184 8.66042 26.842C8.22405 28.5874 9.14036 29.5037 11.4094 27.1329C12.3839 26.1147 14.5947 23.8312 19.7727 17.9259C24.1653 12.9224 24.1507 13.0533 20.689 12.9224L18.551 12.8352C19.5546 11.7734 23.3071 7.72988 24.4562 6.78443C25.6052 5.82447 25.9689 5.43176 24.4272 5.21359C22.6381 4.95177 16.5874 4.84996 14.8129 4.68997C14.4056 4.64634 13.8966 4.68997 13.6784 4.77723ZM22.3035 6.24627L21.5472 6.8717C19.7 8.38437 16.0492 12.7333 16.0492 13.4024C16.0492 14.1296 17.271 14.0569 20.4273 14.0569C15.7729 19.4531 12.1366 23.6566 12.0493 23.6566C12.0202 23.6566 12.3548 22.6966 12.8057 21.504C14.4929 16.9805 14.5802 16.1369 13.3875 16.2823C11.3221 16.5296 9.30036 16.806 9.024 16.8932C8.77678 16.9659 8.93672 16.5732 9.86757 14.8278C11.5258 11.657 12.1948 10.7407 15.1038 5.89719C20.6454 6.14446 20.5872 6.14446 22.3035 6.24627Z" fill="#006B99"/>
</svg>
