<svg width="481" height="480" viewBox="0 0 481 480" fill="none" xmlns="http://www.w3.org/2000/svg">
<path d="M371.353 163.893H137.669V154.663C137.669 151.96 138.743 149.369 140.655 147.458C142.566 145.547 145.158 144.473 147.861 144.472H368.239C367.863 146.303 367.676 148.167 367.674 150.036C367.674 150.115 367.674 150.184 367.674 150.261H174.211V158.025H368.661L368.848 157.973C369.464 160.032 370.303 162.018 371.353 163.893Z" fill="#CCEFF6"/>
<path d="M264.803 315.23C266.296 315.23 267.756 315.673 268.998 316.502C270.24 317.332 271.209 318.51 271.78 319.89C272.351 321.269 272.503 322.787 272.212 324.252C271.92 325.716 271.2 327.061 270.144 328.117C269.088 329.173 267.743 329.893 266.279 330.184C264.813 330.476 263.295 330.324 261.915 329.753C260.535 329.182 259.355 328.215 258.527 326.971C257.697 325.73 257.255 324.27 257.255 322.777C257.256 320.777 258.052 318.857 259.468 317.443C260.882 316.027 262.8 315.232 264.803 315.23Z" fill="#F7CEDC"/>
<path d="M400.999 201.763V288.701C399.207 289.471 397.465 290.351 395.783 291.336L391.846 290.004L391.948 289.699V185.241L400.999 201.763Z" fill="#F7CEDC"/>
<path d="M400.999 183.893V201.763L391.946 185.237V181.141C394.874 182.332 397.904 183.254 400.999 183.893Z" fill="#006B99"/>
<path d="M383.499 336.542H366.99L374.701 309.014H379.772C378.442 312.316 377.758 315.839 377.754 319.397C377.802 325.576 379.814 331.581 383.499 336.542Z" fill="#006B99"/>
<path d="M374.707 309.015L366.995 336.542H142.366C138.719 336.542 135.222 335.093 132.643 332.514C130.065 329.937 128.616 326.441 128.616 322.794V257.139L137.669 245.58V298.825C137.669 301.527 138.743 304.119 140.655 306.029C142.566 307.942 145.158 309.015 147.861 309.015H374.707ZM272.367 322.777C272.369 321.285 271.926 319.825 271.096 318.581C270.266 317.34 269.088 316.372 267.708 315.799C266.328 315.228 264.811 315.077 263.345 315.368C261.879 315.659 260.533 316.378 259.477 317.433C258.42 318.487 257.701 319.832 257.408 321.298C257.117 322.762 257.264 324.281 257.835 325.661C258.406 327.04 259.374 328.22 260.616 329.05C261.856 329.882 263.316 330.324 264.811 330.326C266.813 330.326 268.733 329.529 270.148 328.115C271.564 326.699 272.359 324.779 272.361 322.777H272.367Z" fill="#F7CEDC"/>
<path d="M371.453 189.45C371.985 189.437 372.514 189.53 373.009 189.725C373.505 189.919 373.955 190.211 374.337 190.582C374.718 190.954 375.019 191.398 375.226 191.888C375.433 192.378 375.54 192.905 375.54 193.436C375.54 193.968 375.433 194.495 375.226 194.986C375.019 195.474 374.718 195.919 374.337 196.29C373.955 196.662 373.505 196.953 373.009 197.147C372.514 197.342 371.985 197.436 371.453 197.423H279.536C278.748 197.425 277.976 197.191 277.319 196.754C276.663 196.315 276.15 195.693 275.849 194.965C275.546 194.235 275.467 193.434 275.623 192.66C275.778 191.886 276.157 191.176 276.717 190.619C277.085 190.246 277.525 189.951 278.008 189.751C278.493 189.55 279.013 189.448 279.536 189.45H371.453Z" fill="#CCEFF6"/>
<path d="M371.455 206.497C372.512 206.497 373.526 206.918 374.274 207.666C375.023 208.413 375.443 209.428 375.443 210.486C375.443 211.544 375.023 212.557 374.274 213.304C373.526 214.054 372.512 214.473 371.455 214.473H233.032C231.974 214.471 230.96 214.05 230.211 213.301C229.464 212.553 229.042 211.538 229.042 210.48C229.046 209.425 229.468 208.413 230.215 207.666C230.964 206.92 231.976 206.501 233.032 206.497H371.455Z" fill="#006B99"/>
<path d="M371.453 223.548C371.985 223.534 372.514 223.628 373.009 223.823C373.505 224.017 373.955 224.308 374.337 224.68C374.716 225.052 375.019 225.496 375.226 225.985C375.433 226.475 375.538 227.002 375.538 227.535C375.538 228.065 375.433 228.592 375.226 229.083C375.019 229.573 374.716 230.016 374.337 230.388C373.955 230.759 373.505 231.051 373.009 231.246C372.514 231.44 371.985 231.533 371.453 231.52H326.041C324.982 231.52 323.968 231.1 323.219 230.351C322.471 229.604 322.051 228.589 322.05 227.531C322.051 226.473 322.473 225.46 323.22 224.714C323.97 223.967 324.983 223.548 326.041 223.548H371.453Z" fill="#CCEFF6"/>
<path d="M371.455 240.588C372.512 240.588 373.526 241.008 374.274 241.755C375.023 242.504 375.443 243.518 375.443 244.576C375.443 245.633 375.023 246.647 374.274 247.396C373.526 248.143 372.512 248.563 371.455 248.563H225.282C224.225 248.563 223.209 248.141 222.462 247.392C221.712 246.645 221.291 245.629 221.291 244.572C221.294 243.514 221.716 242.502 222.465 241.755C223.213 241.01 224.226 240.59 225.282 240.588H371.455Z" fill="#006B99"/>
<path d="M371.453 257.645C372.493 257.671 373.484 258.102 374.21 258.846C374.937 259.591 375.345 260.591 375.345 261.632C375.345 262.672 374.937 263.672 374.21 264.416C373.484 265.161 372.493 265.592 371.453 265.619H295.039C293.981 265.617 292.967 265.197 292.218 264.448C291.469 263.701 291.047 262.686 291.047 261.628C291.049 260.57 291.473 259.559 292.22 258.811C292.969 258.066 293.983 257.646 295.039 257.645H371.453Z" fill="#CCEFF6"/>
<path d="M371.455 274.693C371.985 274.68 372.516 274.774 373.011 274.967C373.505 275.163 373.957 275.454 374.337 275.826C374.718 276.197 375.021 276.64 375.228 277.13C375.435 277.621 375.54 278.148 375.54 278.678C375.54 279.211 375.435 279.738 375.228 280.228C375.021 280.717 374.718 281.162 374.337 281.533C373.957 281.905 373.505 282.196 373.011 282.39C372.516 282.585 371.985 282.679 371.455 282.666H349.294C348.236 282.666 347.221 282.244 346.473 281.497C345.726 280.748 345.304 279.734 345.304 278.675C345.306 277.619 345.728 276.607 346.477 275.86C347.224 275.113 348.238 274.693 349.294 274.693H371.455Z" fill="#006B99"/>
<path d="M371.455 291.74C372.512 291.74 373.526 292.161 374.274 292.909C375.023 293.656 375.443 294.671 375.443 295.729C375.443 296.785 375.023 297.8 374.274 298.547C373.526 299.295 372.512 299.716 371.455 299.716H248.535C247.477 299.714 246.462 299.293 245.712 298.545C244.965 297.796 244.543 296.781 244.542 295.723C244.547 294.668 244.969 293.654 245.718 292.909C246.466 292.161 247.479 291.742 248.535 291.74H371.455Z" fill="#CCEFF6"/>
<path d="M371.763 172.431L367.896 180.375H248.535C247.477 180.375 246.464 179.955 245.714 179.208C244.967 178.46 244.547 177.445 244.547 176.388C244.547 175.33 244.967 174.316 245.714 173.568C246.464 172.82 247.477 172.4 248.535 172.4H371.455C371.562 172.4 371.656 172.424 371.763 172.431Z" fill="#006B99"/>
<path d="M142.366 137.869H370.462C369.456 139.971 368.71 142.189 368.239 144.472H147.861C145.158 144.472 142.566 145.546 140.655 147.457C138.743 149.368 137.669 151.96 137.669 154.662V187.194C134.86 185.113 131.823 183.361 128.616 181.97V151.616C128.616 149.811 128.972 148.023 129.663 146.355C130.354 144.687 131.367 143.172 132.643 141.895C133.92 140.619 135.436 139.606 137.104 138.915C138.772 138.224 140.56 137.869 142.366 137.869Z" fill="#F7CEDC"/>
<path d="M368.85 157.972L368.663 158.025H174.211V150.26H367.683C367.699 152.874 368.092 155.471 368.85 157.972Z" fill="#006B99"/>
<path d="M327.277 274.693C328.318 274.718 329.309 275.149 330.035 275.894C330.761 276.64 331.169 277.638 331.169 278.678C331.169 279.721 330.761 280.719 330.035 281.464C329.309 282.21 328.318 282.641 327.277 282.666H173.353C172.295 282.666 171.28 282.244 170.532 281.497C169.784 280.748 169.363 279.734 169.363 278.676C169.366 277.619 169.787 276.607 170.535 275.86C171.283 275.115 172.297 274.693 173.353 274.693H327.277Z" fill="#CCEFF6"/>
<path d="M304.023 223.547C305.063 223.572 306.054 224.003 306.78 224.749C307.507 225.494 307.915 226.492 307.915 227.535C307.915 228.575 307.507 229.573 306.78 230.319C306.054 231.064 305.063 231.495 304.023 231.52H173.353C172.295 231.52 171.28 231.098 170.532 230.351C169.784 229.602 169.363 228.588 169.363 227.531C169.365 226.473 169.786 225.46 170.534 224.714C171.282 223.967 172.296 223.547 173.353 223.547H304.023Z" fill="#006B99"/>
<path d="M294.497 356.309L297.77 370.731H293.148H238.444H231.848L239.599 336.542L294.497 356.309Z" fill="#F7CEDC"/>
<path d="M290.016 336.542L294.497 356.309L239.597 336.542H290.016Z" fill="#006B99"/>
<path d="M273.02 257.645C274.061 257.671 275.05 258.102 275.776 258.846C276.504 259.591 276.91 260.591 276.91 261.632C276.91 262.672 276.504 263.672 275.776 264.416C275.05 265.161 274.061 265.592 273.02 265.619H173.353C172.295 265.617 171.28 265.197 170.532 264.448C169.784 263.701 169.363 262.686 169.363 261.628C169.365 260.57 169.786 259.559 170.534 258.811C171.282 258.064 172.296 257.645 173.353 257.645H273.02Z" fill="#006B99"/>
<path d="M257.519 189.45C258.05 189.437 258.579 189.53 259.075 189.725C259.569 189.919 260.02 190.211 260.401 190.582C260.782 190.954 261.085 191.398 261.292 191.888C261.497 192.378 261.605 192.905 261.605 193.436C261.605 193.968 261.497 194.495 261.292 194.986C261.085 195.474 260.782 195.919 260.401 196.29C260.02 196.662 259.569 196.953 259.075 197.147C258.579 197.342 258.05 197.436 257.519 197.423H173.353C172.821 197.436 172.292 197.342 171.797 197.147C171.302 196.953 170.85 196.662 170.47 196.29C170.089 195.919 169.786 195.474 169.58 194.986C169.373 194.495 169.267 193.968 169.267 193.436C169.267 192.905 169.373 192.378 169.58 191.888C169.786 191.398 170.089 190.954 170.47 190.582C170.85 190.211 171.302 189.919 171.797 189.725C172.292 189.53 172.821 189.437 173.353 189.45H257.519Z" fill="#006B99"/>
<path d="M226.515 172.4C227.572 172.4 228.588 172.82 229.335 173.568C230.083 174.316 230.502 175.33 230.502 176.388C230.502 177.445 230.083 178.46 229.335 179.208C228.588 179.955 227.572 180.375 226.515 180.375H173.353C172.295 180.375 171.28 179.954 170.532 179.206C169.784 178.458 169.363 177.443 169.363 176.385C169.365 175.328 169.787 174.315 170.535 173.568C171.283 172.822 172.296 172.401 173.353 172.4H226.515Z" fill="#CCEFF6"/>
<path d="M226.515 291.74C227.572 291.74 228.588 292.161 229.335 292.909C230.083 293.656 230.502 294.671 230.502 295.729C230.502 296.785 230.083 297.8 229.335 298.547C228.588 299.295 227.572 299.716 226.515 299.716H173.353C172.295 299.714 171.28 299.293 170.532 298.545C169.784 297.796 169.363 296.781 169.363 295.723C169.366 294.668 169.787 293.654 170.535 292.909C171.283 292.161 172.297 291.742 173.353 291.74H226.515Z" fill="#006B99"/>
<path d="M211.013 206.497C212.071 206.497 213.087 206.918 213.834 207.666C214.582 208.413 215.003 209.428 215.003 210.486C215.003 211.544 214.582 212.557 213.834 213.304C213.087 214.054 212.071 214.473 211.013 214.473H173.353C172.295 214.471 171.28 214.05 170.532 213.303C169.784 212.553 169.363 211.538 169.363 210.48C169.366 209.425 169.787 208.411 170.535 207.666C171.283 206.918 172.297 206.499 173.353 206.497H211.013Z" fill="#CCEFF6"/>
<path d="M203.262 240.588C204.32 240.588 205.335 241.008 206.083 241.755C206.83 242.504 207.252 243.518 207.252 244.576C207.252 245.633 206.83 246.647 206.083 247.396C205.335 248.143 204.32 248.563 203.262 248.563H173.353C172.295 248.563 171.28 248.141 170.532 247.392C169.784 246.643 169.363 245.629 169.363 244.572C169.366 243.514 169.787 242.502 170.535 241.755C171.283 241.01 172.297 240.588 173.353 240.588H203.262Z" fill="#CCEFF6"/>
<path d="M151.171 207.723C151.697 207.919 152.156 208.262 152.493 208.71C152.831 209.158 153.034 209.693 153.077 210.252C153.121 210.81 153.004 211.371 152.74 211.866C152.477 212.36 152.077 212.77 151.588 213.046C151.588 212.883 151.588 212.713 151.588 212.542C151.588 212.147 151.588 211.753 151.557 211.356V211.264C151.506 210.076 151.377 208.894 151.171 207.723Z" fill="#006B99"/>
<path d="M150.117 173.415C150.705 173.413 151.28 173.586 151.77 173.911C152.26 174.236 152.642 174.699 152.868 175.242C153.094 175.784 153.155 176.382 153.041 176.958C152.928 177.535 152.645 178.065 152.23 178.482C151.815 178.898 151.286 179.182 150.71 179.297C150.133 179.412 149.535 179.354 148.992 179.13C148.449 178.905 147.984 178.525 147.658 178.036C147.331 177.547 147.156 176.973 147.156 176.385C147.156 175.599 147.468 174.845 148.023 174.288C148.578 173.732 149.331 173.418 150.117 173.415Z" fill="#006B99"/>
<path d="M150.117 190.465C150.704 190.464 151.279 190.637 151.768 190.962C152.257 191.287 152.639 191.75 152.864 192.292C153.09 192.834 153.15 193.432 153.036 194.007C152.922 194.583 152.64 195.112 152.225 195.528C151.811 195.944 151.282 196.227 150.706 196.342C150.13 196.457 149.533 196.4 148.99 196.176C148.447 195.951 147.983 195.57 147.657 195.081C147.331 194.595 147.156 194.02 147.156 193.434C147.156 192.646 147.468 191.893 148.023 191.337C148.578 190.781 149.331 190.467 150.117 190.465Z" fill="#006B99"/>
<path d="M150.117 224.563C150.905 224.563 151.659 224.875 152.216 225.433C152.773 225.988 153.085 226.743 153.085 227.531C153.085 228.316 152.773 229.071 152.216 229.629C151.659 230.184 150.905 230.497 150.117 230.497C149.485 230.483 148.873 230.269 148.369 229.886C147.865 229.504 147.494 228.972 147.31 228.366L146.903 228.109C147.602 227.023 148.231 225.893 148.786 224.726L148.917 224.785C149.164 224.542 149.914 224.563 150.117 224.563Z" fill="#006B99"/>
<path d="M150.117 258.658C150.705 258.656 151.28 258.829 151.77 259.154C152.26 259.48 152.642 259.942 152.868 260.486C153.094 261.028 153.155 261.624 153.041 262.201C152.928 262.778 152.645 263.308 152.23 263.724C151.815 264.142 151.286 264.425 150.71 264.54C150.133 264.655 149.535 264.598 148.992 264.374C148.449 264.148 147.984 263.768 147.658 263.28C147.331 262.791 147.156 262.216 147.156 261.628C147.156 260.842 147.468 260.088 148.023 259.532C148.578 258.974 149.331 258.66 150.117 258.658Z" fill="#006B99"/>
<path d="M150.117 275.709C150.704 275.707 151.279 275.879 151.768 276.205C152.257 276.531 152.639 276.992 152.864 277.535C153.09 278.077 153.15 278.675 153.036 279.249C152.922 279.826 152.64 280.355 152.225 280.771C151.811 281.186 151.282 281.47 150.706 281.585C150.13 281.7 149.533 281.642 148.99 281.418C148.447 281.194 147.983 280.813 147.657 280.324C147.331 279.838 147.156 279.263 147.156 278.677C147.156 277.889 147.468 277.136 148.023 276.58C148.578 276.023 149.331 275.711 150.117 275.709Z" fill="#006B99"/>
<path d="M150.117 292.755C150.705 292.753 151.28 292.926 151.77 293.251C152.26 293.577 152.642 294.041 152.868 294.583C153.094 295.125 153.155 295.723 153.041 296.3C152.927 296.877 152.645 297.407 152.23 297.823C151.814 298.239 151.285 298.522 150.708 298.637C150.132 298.752 149.534 298.695 148.991 298.469C148.447 298.245 147.983 297.863 147.656 297.375C147.33 296.886 147.156 296.311 147.156 295.723C147.156 294.938 147.468 294.185 148.023 293.627C148.578 293.071 149.331 292.757 150.117 292.755Z" fill="#006B99"/>
<path d="M133.568 240.602L137.88 242.64L137.661 243.104V245.58L128.609 257.139V243.104C130.312 242.372 131.968 241.537 133.568 240.602Z" fill="#006B99"/>
<path d="M118.811 246.29L118.895 246.672C114.89 255.754 109.792 264.766 103.821 269.781C101.882 271.407 100.017 273.055 98.2248 274.724C97.5493 264.82 96.8213 254.799 96.1241 246.672C99.559 247.296 103.043 247.611 106.535 247.609C110.662 247.614 114.779 247.172 118.811 246.29Z" fill="#006B99"/>
<path d="M90.7302 291.688C92.2037 288.237 94.4753 285.185 97.3583 282.783C97.799 282.443 98.2398 282.1 98.6901 281.775C105.803 276.772 113.553 272.745 121.734 269.8C121.516 270.263 113.192 287.894 105.206 294.629C103.354 296.185 101.5 297.582 99.7489 298.94C97.9719 300.291 96.291 301.764 94.7185 303.349C92.9827 305.058 91.6096 307.098 90.6816 309.352C89.7535 311.603 89.2893 314.019 89.3169 316.454V316.849H85.9011V316.454C85.9446 312.277 86.3338 308.112 87.0652 304C87.762 299.758 88.9936 295.62 90.7302 291.688Z" fill="#CCEFF6"/>
<path d="M100.597 316.454V316.849H96.4432C96.2412 312.308 95.6602 307.794 94.7066 303.349C96.279 301.764 97.96 300.291 99.737 298.94C100.271 307.93 100.597 314.655 100.597 316.454Z" fill="#006B99"/>
<path d="M98.6897 281.767C98.2394 282.1 97.7986 282.443 97.3579 282.783C94.4749 285.185 92.2033 288.237 90.7298 291.688C89.8075 290.251 88.6673 288.657 87.3498 286.883C84.2885 282.744 80.3217 277.707 76.2519 272.11C71.3511 265.548 66.9763 258.608 63.1682 251.358C63.1682 251.358 63.1442 251.32 63.1059 251.251C62.5333 250.111 61.9896 248.98 61.4722 247.833C44.5197 210.45 55.5028 173.176 55.5028 173.176C61.3145 178.476 66.7672 184.157 71.8252 190.18C68.6477 192.991 66.0875 196.428 64.3055 200.278C62.5237 204.127 61.559 208.304 61.4722 212.544C61.4722 229.121 76.2519 243.016 96.1243 246.674C96.8213 254.801 97.5495 264.822 98.225 274.726C98.3808 277.088 98.5437 279.441 98.6897 281.767Z" fill="#CCEFF6"/>
<path d="M85.3986 289.826C85.3986 289.826 86.6707 297.398 87.0754 303.993C86.3441 308.104 85.9547 312.27 85.9112 316.447V316.841H82.5072V316.447C83.7051 308.434 82.4762 299.413 82.5072 295.15C83.3705 293.322 84.3358 291.546 85.3986 289.826Z" fill="#006B99"/>
<path d="M87.3505 286.883C86.6702 287.841 86.0187 288.828 85.3982 289.826C84.3356 291.546 83.3701 293.322 82.507 295.15C79.3654 301.941 77.7139 309.323 77.6635 316.803V316.841H76.2981C76.2155 308.526 75.3566 300.237 73.7325 292.081C74.5159 287.981 74.9302 283.331 75.4309 278.587C75.6561 276.448 75.8956 274.287 76.1902 272.156L76.2525 272.109C80.3224 277.711 84.2892 282.74 87.3505 286.883Z" fill="#CCEFF6"/>
<path d="M76.2977 316.849H70.2613C69.8661 296.313 55.9775 289.828 42.072 278.111C27.6995 266.014 12.7425 234.078 12.7425 234.078C27.6929 239.462 41.8211 246.9 54.7198 256.179C55.1216 256.52 55.5406 256.84 55.975 257.137C66.0357 265.027 71.1596 279.286 73.7323 292.081C75.3568 300.239 76.2157 308.532 76.2977 316.849Z" fill="#CCEFF6"/>
<path d="M76.2525 272.11L76.1902 272.158C75.8957 274.291 75.6561 276.45 75.4309 278.59C74.0512 269.438 66.7187 264.571 55.9777 257.141C55.5586 256.815 55.1465 256.489 54.7202 256.183C44.9779 248.015 41.9334 228.09 41.9334 228.09C53.0865 234.647 62.2705 249.843 63.1064 251.253C63.1447 251.322 63.1687 251.36 63.1687 251.36C66.977 258.61 71.3518 265.55 76.2525 272.11Z" fill="#006B99"/>
<path d="M128.616 243.104C130.316 242.372 131.97 241.537 133.568 240.602L137.879 242.64L158.959 252.56L145.305 230.42C145.878 229.669 146.421 228.903 146.917 228.109C147.617 227.023 148.246 225.891 148.8 224.724C150.563 221.078 151.514 217.094 151.588 213.046C151.588 212.883 151.588 212.712 151.588 212.542C151.588 212.147 151.588 211.753 151.557 211.356" stroke="#006B99" stroke-width="1.54342" stroke-linecap="round" stroke-linejoin="round"/>
<path d="M151.567 211.264C151.513 210.076 151.381 208.894 151.172 207.723C149.466 199.404 144.633 192.056 137.669 187.194C134.86 185.114 131.823 183.361 128.617 181.971C121.646 178.964 114.127 177.434 106.536 177.478C93.7827 177.206 81.3936 181.737 71.826 190.171C68.6485 192.982 66.0883 196.421 64.3063 200.27C62.5245 204.119 61.5598 208.294 61.473 212.536C61.473 229.112 76.2527 243.006 96.1251 246.664C99.5599 247.289 103.044 247.603 106.536 247.601C110.663 247.607 114.78 247.166 118.812 246.283C122.176 245.547 125.46 244.484 128.617 243.108" stroke="#006B99" stroke-width="1.54342" stroke-linecap="round" stroke-linejoin="round"/>
<path d="M371.771 172.431L373.973 167.907C372.995 166.636 372.116 165.294 371.338 163.893C370.291 162.017 369.454 160.031 368.843 157.973C368.086 155.472 367.693 152.874 367.679 150.261C367.679 150.184 367.679 150.114 367.679 150.036C367.678 148.167 367.865 146.303 368.239 144.472C368.709 142.189 369.454 139.972 370.458 137.869C376.813 124.495 393.343 114.963 412.736 114.963C437.616 114.963 457.793 130.662 457.793 150.036C457.793 169.409 437.616 185.103 412.736 185.103C408.793 185.11 404.858 184.702 400.999 183.886C397.904 183.252 394.874 182.334 391.948 181.142C389.8 180.277 387.719 179.256 385.72 178.088L364.64 187.079L367.911 180.373L371.784 172.429" stroke="#006B99" stroke-width="1.54342" stroke-linecap="round" stroke-linejoin="round"/>
<path d="M391.846 290.006L378.367 285.442L384.049 301.521C382.286 303.811 380.845 306.332 379.77 309.014C378.44 312.316 377.756 315.839 377.754 319.397C377.802 325.576 379.816 331.581 383.503 336.542C391.214 347.235 405.933 354.466 422.82 354.466C447.702 354.466 467.877 338.764 467.877 319.397C467.877 300.032 447.702 284.333 422.82 284.333C415.325 284.294 407.903 285.783 401.003 288.711C399.211 289.481 397.469 290.36 395.786 291.345L391.846 290.006Z" stroke="#006B99" stroke-width="1.54342" stroke-linecap="round" stroke-linejoin="round"/>
<path d="M128.616 181.97V151.616C128.616 147.97 130.065 144.473 132.643 141.895C135.222 139.317 138.719 137.869 142.366 137.869H370.462" stroke="#006B99" stroke-width="1.54342" stroke-linecap="round" stroke-linejoin="round"/>
<path d="M239.605 336.542H142.366C138.719 336.542 135.222 335.093 132.643 332.514C130.065 329.937 128.616 326.44 128.616 322.794V243.106" stroke="#006B99" stroke-width="1.54342" stroke-linecap="round" stroke-linejoin="round"/>
<path d="M383.497 336.542H366.988H290.016" stroke="#006B99" stroke-width="1.54342" stroke-linecap="round" stroke-linejoin="round"/>
<path d="M400.999 183.894V201.763V288.711" stroke="#006B99" stroke-width="1.54342" stroke-linecap="round" stroke-linejoin="round"/>
<path d="M137.669 187.204V154.663C137.669 151.96 138.743 149.369 140.655 147.458C142.566 145.547 145.158 144.473 147.861 144.472H368.239" stroke="#006B99" stroke-width="1.54342" stroke-linecap="round" stroke-linejoin="round"/>
<path d="M379.772 309.016H147.861C145.158 309.014 142.566 307.941 140.655 306.031C138.743 304.119 137.669 301.527 137.669 298.825V243.106" stroke="#006B99" stroke-width="1.54342" stroke-linecap="round" stroke-linejoin="round"/>
<path d="M391.946 181.151V185.242V289.703" stroke="#006B99" stroke-width="1.54342" stroke-linecap="round" stroke-linejoin="round"/>
<path d="M137.669 163.893H371.343" stroke="#006B99" stroke-width="1.54342" stroke-linecap="round" stroke-linejoin="round"/>
<path d="M368.664 158.025H174.213V150.26H367.616" stroke="#006B99" stroke-width="1.54342" stroke-linecap="round" stroke-linejoin="round"/>
<path d="M272.361 322.777C272.361 324.272 271.918 325.732 271.09 326.973C270.261 328.215 269.082 329.184 267.702 329.757C266.323 330.33 264.805 330.479 263.339 330.19C261.873 329.899 260.528 329.18 259.47 328.125C258.414 327.069 257.693 325.724 257.4 324.26C257.109 322.794 257.256 321.277 257.828 319.897C258.399 318.516 259.366 317.336 260.608 316.506C261.85 315.674 263.308 315.232 264.803 315.23C266.806 315.23 268.728 316.025 270.144 317.439C271.562 318.855 272.359 320.775 272.361 322.777Z" stroke="#006B99" stroke-width="1.54342" stroke-linecap="round" stroke-linejoin="round"/>
<path d="M231.848 370.731L239.599 336.542H290.018L294.497 356.309L297.77 370.731" stroke="#006B99" stroke-width="1.54342" stroke-linecap="round" stroke-linejoin="round"/>
<path d="M293.147 370.729H238.444" stroke="#006B99" stroke-width="1.54342" stroke-linecap="round" stroke-linejoin="round"/>
<path d="M239.597 336.542L294.497 356.309" stroke="#006B99" stroke-width="1.54342" stroke-linecap="round" stroke-linejoin="round"/>
<path d="M210.99 370.729H222.943" stroke="#006B99" stroke-width="1.54342" stroke-linecap="round" stroke-linejoin="round"/>
<path d="M226.492 370.729H231.846H238.444" stroke="#006B99" stroke-width="1.54342" stroke-linecap="round" stroke-linejoin="round"/>
<path d="M40.4745 370.729H52.4277" stroke="#006B99" stroke-width="1.54342" stroke-linecap="round" stroke-linejoin="round"/>
<path d="M99.1161 370.729H129.933" stroke="#006B99" stroke-width="1.54342" stroke-linecap="round" stroke-linejoin="round"/>
<path d="M55.9769 370.729H72.1437" stroke="#006B99" stroke-width="1.54342" stroke-linecap="round" stroke-linejoin="round"/>
<path d="M293.149 370.729H297.77H305.1" stroke="#006B99" stroke-width="1.54342" stroke-linecap="round" stroke-linejoin="round"/>
<path d="M308.649 370.729H320.601" stroke="#006B99" stroke-width="1.54342" stroke-linecap="round" stroke-linejoin="round"/>
<path d="M159.246 158.926L167.175 154.354L159.246 149.772" stroke="#006B99" stroke-width="1.54342" stroke-linecap="round" stroke-linejoin="round"/>
<path d="M154.123 149.772L146.186 154.354L154.123 158.926" stroke="#006B99" stroke-width="1.54342" stroke-linecap="round" stroke-linejoin="round"/>
<path d="M391.946 185.241L400.999 201.763" stroke="#006B99" stroke-width="1.54342" stroke-linecap="round" stroke-linejoin="round"/>
<path d="M374.701 309.014L366.99 336.542" stroke="#006B99" stroke-width="1.54342" stroke-linecap="round" stroke-linejoin="round"/>
<path d="M137.669 245.58L128.616 257.139" stroke="#006B99" stroke-width="1.54342" stroke-linecap="round" stroke-linejoin="round"/>
<path d="M99.1161 370.729H72.1437C67.8561 370.729 63.744 369.027 60.7122 365.996C57.6804 362.963 55.9769 358.853 55.9769 354.565V316.849H115.283V354.565C115.282 358.853 113.579 362.963 110.547 365.994C107.515 369.025 103.404 370.729 99.1161 370.729Z" stroke="#006B99" stroke-width="1.54342" stroke-linecap="round" stroke-linejoin="round"/>
<path d="M76.2977 316.849C76.2157 308.532 75.3568 300.239 73.7323 292.081C71.1596 279.286 66.0357 265.017 55.9775 257.137C55.5582 256.811 55.1462 256.485 54.7198 256.179C41.8211 246.9 27.6929 239.462 12.7425 234.078C12.7425 234.078 27.702 266.014 42.072 278.111C55.9775 289.828 69.8588 296.313 70.2613 316.849" stroke="#006B99" stroke-width="1.54342" stroke-linecap="round" stroke-linejoin="round"/>
<path d="M82.5064 295.158C79.365 301.946 77.7133 309.331 77.6631 316.811" stroke="#006B99" stroke-width="1.54342" stroke-linecap="round" stroke-linejoin="round"/>
<path d="M87.3502 286.883C86.6699 287.841 86.0183 288.828 85.398 289.826C84.3352 291.546 83.37 293.322 82.5067 295.15" stroke="#006B99" stroke-width="1.54342" stroke-linecap="round" stroke-linejoin="round"/>
<path d="M118.895 246.672C114.89 255.753 109.793 264.766 103.821 269.78C101.882 271.407 100.017 273.055 98.2252 274.724" stroke="#006B99" stroke-width="1.54342" stroke-linecap="round" stroke-linejoin="round"/>
<path d="M73.7325 292.081C74.5159 287.981 74.9302 283.332 75.4309 278.586C75.6561 276.448 75.8956 274.289 76.1902 272.156" stroke="#006B99" stroke-width="1.54342" stroke-linecap="round" stroke-linejoin="round"/>
<path d="M121.751 269.781C121.526 270.26 113.201 287.883 105.222 294.618C103.371 296.173 101.516 297.57 99.7655 298.929C97.9885 300.279 96.3077 301.753 94.7351 303.337C92.9993 305.046 91.6263 307.087 90.698 309.338C89.7699 311.591 89.3058 314.008 89.3334 316.443" stroke="#006B99" stroke-width="1.54342" stroke-linecap="round" stroke-linejoin="round"/>
<path d="M98.6903 281.767C105.803 276.766 113.553 272.739 121.734 269.792" stroke="#006B99" stroke-width="1.54342" stroke-linecap="round" stroke-linejoin="round"/>
<path d="M85.9011 316.454C85.9446 312.277 86.3338 308.112 87.0652 304C87.7626 299.76 88.9942 295.625 90.7302 291.696C92.2037 288.243 94.4753 285.193 97.3583 282.79C97.799 282.451 98.2398 282.108 98.6901 281.782" stroke="#006B99" stroke-width="1.54342" stroke-linecap="round" stroke-linejoin="round"/>
<path d="M94.7066 303.349C95.6602 307.794 96.2412 312.308 96.4432 316.849" stroke="#006B99" stroke-width="1.54342" stroke-linecap="round" stroke-linejoin="round"/>
<path d="M63.1683 251.366C66.9765 258.616 71.3515 265.556 76.2521 272.118C80.3243 277.715 84.2888 282.752 87.3502 286.89C88.6677 288.665 89.8079 290.266 90.73 291.694" stroke="#006B99" stroke-width="1.54342" stroke-linecap="round" stroke-linejoin="round"/>
<path d="M71.8252 190.178C66.7672 184.154 61.3145 178.474 55.5028 173.173C55.5028 173.173 44.5197 210.446 61.4722 247.831C61.9896 248.977 62.5333 250.107 63.1059 251.247" stroke="#006B99" stroke-width="1.54342" stroke-linecap="round" stroke-linejoin="round"/>
<path d="M98.6897 281.782C98.5435 279.449 98.3806 277.094 98.225 274.731C97.5495 264.828 96.8213 254.807 96.1241 246.677" stroke="#006B99" stroke-width="1.54342" stroke-linecap="round" stroke-linejoin="round"/>
<path d="M100.597 316.454C100.597 314.655 100.271 307.93 99.7439 298.94" stroke="#006B99" stroke-width="1.54342" stroke-linecap="round" stroke-linejoin="round"/>
<path d="M63.1687 251.366C63.1687 251.366 63.1447 251.328 63.1064 251.257C62.2705 249.846 53.0865 234.651 41.9334 228.096C41.9334 228.096 44.9779 248.019 54.7202 256.187C55.1224 256.528 55.5421 256.848 55.9777 257.145C66.7187 264.569 74.0512 269.443 75.4309 278.594" stroke="#006B99" stroke-width="1.54342" stroke-linecap="round" stroke-linejoin="round"/>
<path d="M82.5072 295.15C82.4762 299.413 83.7049 308.434 82.5072 316.447" stroke="#006B99" stroke-width="1.54342" stroke-linecap="round" stroke-linejoin="round"/>
<path d="M85.3976 289.826C85.3976 289.826 86.6695 297.398 87.0744 303.993" stroke="#006B99" stroke-width="1.54342" stroke-linecap="round" stroke-linejoin="round"/>
<path d="M163.208 169.432V300.49" stroke="#006B99" stroke-width="1.54342" stroke-linecap="round" stroke-linejoin="round"/>
<path d="M226.515 180.375H173.353C172.295 180.375 171.28 179.954 170.532 179.206C169.784 178.458 169.363 177.443 169.363 176.385C169.365 175.328 169.787 174.315 170.535 173.568C171.283 172.822 172.296 172.401 173.353 172.4H226.515C227.572 172.4 228.588 172.82 229.335 173.568C230.083 174.316 230.502 175.33 230.502 176.388C230.502 177.445 230.083 178.46 229.335 179.208C228.588 179.955 227.572 180.375 226.515 180.375Z" stroke="#006B99" stroke-width="1.54342" stroke-linecap="round" stroke-linejoin="round"/>
<path d="M371.771 172.431C371.656 172.431 371.562 172.4 371.455 172.4H248.535C247.477 172.4 246.464 172.82 245.714 173.568C244.967 174.316 244.547 175.33 244.547 176.388C244.547 177.445 244.967 178.46 245.714 179.208C246.464 179.955 247.477 180.375 248.535 180.375H367.896L371.771 172.431Z" stroke="#006B99" stroke-width="1.54342" stroke-linecap="round" stroke-linejoin="round"/>
<path d="M153.085 176.385C153.085 176.971 152.91 177.544 152.584 178.031C152.257 178.518 151.794 178.897 151.252 179.121C150.71 179.344 150.114 179.403 149.539 179.288C148.965 179.173 148.437 178.891 148.022 178.476C147.608 178.061 147.326 177.533 147.211 176.958C147.097 176.383 147.156 175.788 147.38 175.246C147.604 174.705 147.984 174.242 148.471 173.916C148.958 173.59 149.531 173.416 150.118 173.415C150.508 173.415 150.894 173.491 151.255 173.64C151.615 173.789 151.943 174.008 152.218 174.284C152.494 174.56 152.713 174.887 152.862 175.248C153.01 175.609 153.086 175.995 153.085 176.385Z" stroke="#006B99" stroke-width="1.54342" stroke-linecap="round" stroke-linejoin="round"/>
<path d="M257.519 197.423H173.353C172.821 197.436 172.292 197.342 171.797 197.147C171.302 196.953 170.85 196.662 170.47 196.29C170.089 195.919 169.786 195.474 169.58 194.986C169.373 194.495 169.267 193.968 169.267 193.436C169.267 192.905 169.373 192.378 169.58 191.888C169.786 191.398 170.089 190.954 170.47 190.582C170.85 190.211 171.302 189.919 171.797 189.725C172.292 189.53 172.821 189.437 173.353 189.45H257.519C258.05 189.437 258.579 189.53 259.075 189.725C259.569 189.919 260.02 190.211 260.401 190.582C260.782 190.954 261.085 191.398 261.292 191.888C261.497 192.378 261.605 192.905 261.605 193.436C261.605 193.968 261.497 194.495 261.292 194.986C261.085 195.474 260.782 195.919 260.401 196.29C260.02 196.662 259.569 196.953 259.075 197.147C258.579 197.342 258.05 197.436 257.519 197.423Z" stroke="#006B99" stroke-width="1.54342" stroke-linecap="round" stroke-linejoin="round"/>
<path d="M371.453 197.423H279.536C278.748 197.425 277.976 197.191 277.319 196.754C276.663 196.315 276.15 195.693 275.849 194.965C275.546 194.235 275.467 193.434 275.623 192.66C275.778 191.886 276.157 191.176 276.717 190.619C277.085 190.246 277.525 189.951 278.008 189.751C278.493 189.55 279.013 189.448 279.536 189.45H371.453C371.985 189.437 372.514 189.53 373.009 189.725C373.505 189.919 373.955 190.211 374.337 190.582C374.718 190.954 375.019 191.398 375.226 191.888C375.433 192.378 375.54 192.905 375.54 193.436C375.54 193.968 375.433 194.495 375.226 194.986C375.019 195.474 374.718 195.919 374.337 196.29C373.955 196.662 373.505 196.953 373.009 197.147C372.514 197.342 371.985 197.436 371.453 197.423Z" stroke="#006B99" stroke-width="1.54342" stroke-linecap="round" stroke-linejoin="round"/>
<path d="M153.085 193.434C153.085 194.02 152.911 194.593 152.585 195.08C152.259 195.566 151.796 195.946 151.254 196.17C150.712 196.394 150.116 196.453 149.541 196.338C148.966 196.223 148.438 195.942 148.023 195.528C147.609 195.112 147.326 194.585 147.211 194.01C147.097 193.434 147.156 192.838 147.38 192.298C147.604 191.755 147.984 191.292 148.471 190.966C148.958 190.64 149.531 190.466 150.118 190.465C150.508 190.465 150.894 190.541 151.254 190.69C151.614 190.839 151.942 191.058 152.218 191.333C152.493 191.609 152.712 191.936 152.861 192.298C153.01 192.658 153.086 193.043 153.085 193.434Z" stroke="#006B99" stroke-width="1.54342" stroke-linecap="round" stroke-linejoin="round"/>
<path d="M211.013 214.483H173.353C172.295 214.481 171.28 214.059 170.532 213.312C169.784 212.563 169.363 211.548 169.363 210.49C169.366 209.432 169.787 208.421 170.535 207.675C171.283 206.928 172.297 206.509 173.353 206.507H211.013C212.071 206.507 213.087 206.926 213.834 207.675C214.582 208.423 215.003 209.436 215.003 210.494C215.003 211.551 214.582 212.567 213.834 213.314C213.087 214.061 212.071 214.483 211.013 214.483Z" stroke="#006B99" stroke-width="1.54342" stroke-linecap="round" stroke-linejoin="round"/>
<path d="M371.455 214.483H233.032C231.974 214.481 230.96 214.059 230.211 213.31C229.464 212.563 229.042 211.548 229.042 210.49C229.046 209.434 229.468 208.423 230.215 207.675C230.964 206.93 231.976 206.509 233.032 206.507H371.455C372.512 206.507 373.526 206.926 374.274 207.675C375.023 208.423 375.443 209.436 375.443 210.494C375.443 211.551 375.023 212.567 374.274 213.314C373.526 214.061 372.512 214.483 371.455 214.483Z" stroke="#006B99" stroke-width="1.54342" stroke-linecap="round" stroke-linejoin="round"/>
<path d="M151.597 212.542C151.597 212.713 151.597 212.883 151.581 213.046C152.069 212.77 152.469 212.36 152.733 211.866C152.997 211.371 153.113 210.81 153.07 210.252C153.026 209.693 152.823 209.158 152.486 208.71C152.148 208.262 151.689 207.919 151.164 207.723H151.147C151.359 208.898 151.497 210.082 151.559 211.274V211.369C151.588 211.753 151.597 212.147 151.597 212.542Z" stroke="#006B99" stroke-width="1.54342" stroke-linecap="round" stroke-linejoin="round"/>
<path d="M304.023 231.52H173.353C172.295 231.52 171.28 231.098 170.532 230.351C169.784 229.602 169.363 228.588 169.363 227.531C169.365 226.473 169.786 225.46 170.534 224.714C171.282 223.967 172.296 223.547 173.353 223.547H304.023C305.063 223.572 306.054 224.003 306.78 224.749C307.507 225.494 307.915 226.492 307.915 227.535C307.915 228.575 307.507 229.573 306.78 230.319C306.054 231.064 305.063 231.495 304.023 231.52Z" stroke="#006B99" stroke-width="1.54342" stroke-linecap="round" stroke-linejoin="round"/>
<path d="M371.453 231.52H326.041C324.982 231.52 323.968 231.1 323.219 230.351C322.471 229.604 322.051 228.589 322.05 227.531C322.051 226.473 322.473 225.46 323.22 224.714C323.97 223.967 324.983 223.548 326.041 223.548H371.453C371.985 223.534 372.514 223.628 373.009 223.823C373.505 224.017 373.955 224.308 374.337 224.68C374.716 225.052 375.019 225.496 375.226 225.985C375.433 226.475 375.538 227.002 375.538 227.535C375.538 228.065 375.433 228.592 375.226 229.083C375.019 229.573 374.716 230.016 374.337 230.388C373.955 230.759 373.505 231.051 373.009 231.246C372.514 231.44 371.985 231.533 371.453 231.52Z" stroke="#006B99" stroke-width="1.54342" stroke-linecap="round" stroke-linejoin="round"/>
<path d="M148.922 224.781C149.162 224.542 149.914 224.559 150.12 224.559C150.907 224.559 151.662 224.871 152.219 225.427C152.775 225.985 153.088 226.74 153.088 227.525C153.088 228.313 152.775 229.067 152.219 229.625C151.662 230.181 150.907 230.493 150.12 230.493C149.487 230.478 148.875 230.265 148.371 229.882C147.867 229.499 147.497 228.968 147.313 228.362" stroke="#006B99" stroke-width="1.54342" stroke-linecap="round" stroke-linejoin="round"/>
<path d="M203.262 248.57H173.353C172.295 248.569 171.28 248.147 170.532 247.4C169.784 246.651 169.363 245.635 169.363 244.577C169.366 243.522 169.787 242.508 170.535 241.763C171.283 241.016 172.297 240.596 173.353 240.594H203.262C204.32 240.594 205.335 241.016 206.083 241.763C206.83 242.51 207.252 243.526 207.252 244.583C207.252 245.641 206.83 246.654 206.083 247.402C205.335 248.151 204.32 248.57 203.262 248.57Z" stroke="#006B99" stroke-width="1.54342" stroke-linecap="round" stroke-linejoin="round"/>
<path d="M371.455 248.57H225.282C224.225 248.569 223.209 248.147 222.462 247.4C221.712 246.651 221.291 245.637 221.291 244.577C221.294 243.522 221.716 242.51 222.465 241.763C223.213 241.018 224.226 240.596 225.282 240.594H371.455C372.512 240.594 373.526 241.016 374.274 241.763C375.023 242.51 375.443 243.526 375.443 244.583C375.443 245.641 375.023 246.654 374.274 247.402C373.526 248.151 372.512 248.57 371.455 248.57Z" stroke="#006B99" stroke-width="1.54342" stroke-linecap="round" stroke-linejoin="round"/>
<path d="M273.02 265.619H173.353C172.295 265.617 171.28 265.197 170.532 264.448C169.784 263.701 169.363 262.686 169.363 261.628C169.365 260.57 169.786 259.559 170.534 258.811C171.282 258.064 172.296 257.645 173.353 257.645H273.02C274.061 257.671 275.05 258.102 275.776 258.846C276.504 259.591 276.91 260.591 276.91 261.632C276.91 262.672 276.504 263.672 275.776 264.416C275.05 265.161 274.061 265.592 273.02 265.619Z" stroke="#006B99" stroke-width="1.54342" stroke-linecap="round" stroke-linejoin="round"/>
<path d="M371.453 265.619H295.039C293.981 265.617 292.967 265.197 292.218 264.448C291.469 263.701 291.047 262.686 291.047 261.628C291.049 260.57 291.473 259.559 292.22 258.811C292.969 258.066 293.983 257.646 295.039 257.645H371.453C372.493 257.671 373.484 258.102 374.21 258.846C374.937 259.591 375.345 260.591 375.345 261.632C375.345 262.672 374.937 263.672 374.21 264.416C373.484 265.161 372.493 265.592 371.453 265.619Z" stroke="#006B99" stroke-width="1.54342" stroke-linecap="round" stroke-linejoin="round"/>
<path d="M153.085 261.628C153.085 262.214 152.91 262.787 152.584 263.274C152.257 263.761 151.794 264.14 151.252 264.364C150.71 264.588 150.114 264.646 149.539 264.531C148.965 264.416 148.437 264.134 148.022 263.718C147.608 263.305 147.326 262.776 147.211 262.201C147.097 261.626 147.156 261.03 147.38 260.49C147.604 259.948 147.984 259.484 148.471 259.158C148.958 258.833 149.531 258.658 150.118 258.658C150.508 258.658 150.894 258.735 151.255 258.882C151.615 259.032 151.943 259.25 152.218 259.526C152.494 259.802 152.713 260.132 152.862 260.492C153.01 260.852 153.086 261.239 153.085 261.628Z" stroke="#006B99" stroke-width="1.54342" stroke-linecap="round" stroke-linejoin="round"/>
<path d="M327.277 282.666H173.353C172.295 282.666 171.28 282.244 170.532 281.497C169.784 280.748 169.363 279.734 169.363 278.676C169.366 277.619 169.787 276.607 170.535 275.86C171.283 275.115 172.297 274.693 173.353 274.693H327.277C328.318 274.718 329.309 275.149 330.035 275.894C330.761 276.64 331.169 277.638 331.169 278.678C331.169 279.721 330.761 280.719 330.035 281.464C329.309 282.21 328.318 282.641 327.277 282.666Z" stroke="#006B99" stroke-width="1.54342" stroke-linecap="round" stroke-linejoin="round"/>
<path d="M371.455 282.666H349.294C348.236 282.666 347.221 282.244 346.473 281.497C345.726 280.748 345.304 279.734 345.304 278.675C345.306 277.619 345.728 276.607 346.477 275.86C347.224 275.113 348.238 274.693 349.294 274.693H371.455C371.985 274.68 372.516 274.774 373.011 274.967C373.505 275.163 373.957 275.454 374.337 275.826C374.718 276.197 375.021 276.64 375.228 277.13C375.435 277.621 375.54 278.148 375.54 278.678C375.54 279.211 375.435 279.738 375.228 280.228C375.021 280.717 374.718 281.162 374.337 281.533C373.957 281.905 373.505 282.196 373.011 282.39C372.516 282.585 371.985 282.679 371.455 282.666Z" stroke="#006B99" stroke-width="1.54342" stroke-linecap="round" stroke-linejoin="round"/>
<path d="M153.085 278.669C153.085 279.255 152.911 279.828 152.585 280.315C152.259 280.801 151.796 281.183 151.254 281.407C150.712 281.631 150.116 281.688 149.541 281.573C148.966 281.46 148.438 281.177 148.023 280.763C147.609 280.349 147.326 279.82 147.211 279.246C147.097 278.671 147.156 278.075 147.38 277.533C147.604 276.99 147.984 276.529 148.471 276.201C148.958 275.875 149.531 275.701 150.118 275.701C150.508 275.701 150.894 275.778 151.254 275.925C151.614 276.075 151.942 276.293 152.218 276.569C152.493 276.845 152.712 277.172 152.861 277.533C153.01 277.893 153.086 278.278 153.085 278.669Z" stroke="#006B99" stroke-width="1.54342" stroke-linecap="round" stroke-linejoin="round"/>
<path d="M226.515 299.716H173.353C172.295 299.714 171.28 299.293 170.532 298.545C169.784 297.796 169.363 296.781 169.363 295.723C169.366 294.668 169.787 293.654 170.535 292.909C171.283 292.161 172.297 291.742 173.353 291.74H226.515C227.572 291.74 228.588 292.161 229.335 292.909C230.083 293.656 230.502 294.671 230.502 295.729C230.502 296.785 230.083 297.8 229.335 298.547C228.588 299.295 227.572 299.716 226.515 299.716Z" stroke="#006B99" stroke-width="1.54342" stroke-linecap="round" stroke-linejoin="round"/>
<path d="M371.455 299.716H248.535C247.477 299.714 246.462 299.293 245.712 298.545C244.965 297.796 244.543 296.781 244.542 295.723C244.547 294.668 244.969 293.654 245.718 292.909C246.466 292.161 247.479 291.742 248.535 291.74H371.455C372.512 291.74 373.526 292.161 374.274 292.909C375.023 293.656 375.443 294.671 375.443 295.729C375.443 296.785 375.023 297.8 374.274 298.547C373.526 299.295 372.512 299.716 371.455 299.716Z" stroke="#006B99" stroke-width="1.54342" stroke-linecap="round" stroke-linejoin="round"/>
<path d="M153.086 295.723C153.085 296.31 152.911 296.882 152.585 297.369C152.259 297.858 151.796 298.237 151.254 298.461C150.712 298.685 150.116 298.743 149.541 298.63C148.966 298.515 148.438 298.231 148.023 297.817C147.609 297.404 147.326 296.875 147.211 296.3C147.097 295.725 147.156 295.129 147.38 294.587C147.604 294.045 147.984 293.583 148.471 293.257C148.958 292.93 149.531 292.757 150.118 292.755C150.507 292.755 150.894 292.832 151.254 292.981C151.614 293.131 151.941 293.349 152.217 293.625C152.493 293.899 152.711 294.227 152.86 294.587C153.009 294.947 153.086 295.334 153.086 295.723Z" stroke="#006B99" stroke-width="1.54342" stroke-linecap="round" stroke-linejoin="round"/>
<path d="M96.8525 212.356C96.759 212.356 96.668 212.356 96.5746 212.356C96.4811 212.356 96.3805 212.356 96.2872 212.356C93.4094 212.209 90.703 210.944 88.7451 208.831C86.7871 206.717 85.7326 203.922 85.8064 201.042C85.8801 198.162 87.0763 195.424 89.1398 193.415C91.2033 191.403 93.9711 190.278 96.8525 190.279" stroke="#006B99" stroke-width="2.31632" stroke-linecap="round" stroke-linejoin="round"/>
<path d="M81.1654 212.341H96.8531C96.7596 212.341 96.6686 212.341 96.5752 212.341C93.6781 212.425 90.9303 213.646 88.9241 215.736C86.918 217.828 85.8142 220.624 85.8507 223.521C85.8871 226.418 87.0608 229.186 89.119 231.227C91.1771 233.265 93.9548 234.417 96.8531 234.428" stroke="#006B99" stroke-width="2.31632" stroke-linecap="round" stroke-linejoin="round"/>
<path d="M116.687 212.356C116.78 212.356 116.881 212.356 116.974 212.356C117.068 212.356 117.161 212.356 117.252 212.356C120.13 212.209 122.836 210.944 124.794 208.831C126.752 206.717 127.807 203.922 127.733 201.042C127.659 198.162 126.463 195.424 124.399 193.415C122.336 191.403 119.568 190.278 116.687 190.279" stroke="#006B99" stroke-width="2.31632" stroke-linecap="round" stroke-linejoin="round"/>
<path d="M132.374 212.341H116.687C116.78 212.341 116.881 212.341 116.974 212.341C119.872 212.425 122.62 213.646 124.626 215.738C126.632 217.83 127.735 220.628 127.698 223.526C127.66 226.423 126.484 229.192 124.425 231.231C122.365 233.269 119.586 234.419 116.687 234.428" stroke="#006B99" stroke-width="2.31632" stroke-linecap="round" stroke-linejoin="round"/>
<path d="M422.251 162.954L443.31 150.804L422.251 138.645" stroke="#006B99" stroke-width="2.31632" stroke-linecap="round" stroke-linejoin="round"/>
<path d="M400.635 138.645L379.576 150.804L400.635 162.954" stroke="#006B99" stroke-width="2.31632" stroke-linecap="round" stroke-linejoin="round"/>
<path d="M417.439 133.151L404.851 168.278" stroke="#006B99" stroke-width="1.54342" stroke-linecap="round" stroke-linejoin="round"/>
<path d="M398.797 333.859L402.208 323.505L410.301 298.94L418.399 323.505L421.81 333.859" stroke="#006B99" stroke-width="2.31632" stroke-linecap="round" stroke-linejoin="round"/>
<path d="M402.208 323.505H418.399" stroke="#006B99" stroke-width="2.31632" stroke-linecap="round" stroke-linejoin="round"/>
<path d="M439.333 327.832C437.11 332.597 432.946 335.363 430.048 334.014C427.149 332.666 426.609 327.699 428.832 322.927C431.055 318.152 435.209 315.393 438.116 316.742C439.009 317.29 439.728 318.083 440.186 319.026C440.644 319.968 440.824 321.022 440.705 322.064C440.669 324.063 440.201 326.03 439.333 327.832Z" stroke="#006B99" stroke-width="1.54342" stroke-linecap="round" stroke-linejoin="round"/>
<path d="M440.699 321.993C440.699 322.018 440.699 322.041 440.699 322.064C441.125 326.257 438.561 337.3 445.251 332.805" stroke="#006B99" stroke-width="1.54342" stroke-linecap="round" stroke-linejoin="round"/>
</svg>
