<svg width="32" height="33" viewBox="0 0 32 33" fill="none" xmlns="http://www.w3.org/2000/svg">
<path fill-rule="evenodd" clip-rule="evenodd" d="M12.6306 7.57965C10.8751 9.06835 10.4677 9.26501 8.74025 9.44758C6.49315 9.6863 6.53527 9.67228 6.61952 10.1217C6.70377 10.5992 6.83025 12.411 6.87238 12.8885C5.18702 14.8126 5.14486 14.7283 5.29934 15.8098C5.35552 16.2451 5.24318 20.2899 5.52407 24.0398C5.5943 24.9808 5.90324 25.4162 6.77405 25.8656C8.45934 26.7083 9.84977 26.2167 8.51555 25.2477C7.32177 24.3769 7.20942 23.9977 7.08305 20.5427C7.04087 19.4192 6.94254 17.8883 6.8583 17.1299C6.52125 14.1244 7.54653 15.3743 7.50435 15.6272C7.4201 16.3013 7.75715 16.835 9.2459 17.6075C10.1448 18.0709 13.5013 20.2197 14.8356 20.6692C16.8159 21.3573 17.6304 20.1214 22.2932 16.9333C23.15 16.3575 23.7117 15.8378 24.0347 15.3322C24.8493 14.0822 24.9336 20.4164 24.1331 23.1129C23.5994 24.9106 23.4449 24.9668 18.3187 25.0932C13.066 25.2196 10.566 25.5567 10.6924 25.9358C11.0014 26.8628 22.6444 27.0735 24.4842 26.2027C25.2988 25.8095 26.1836 23.8151 26.3521 22.846C26.6049 21.4135 26.619 19.2085 26.3943 16.2732C26.2398 14.1665 26.0291 13.7031 24.8634 12.6638C24.4561 12.2986 24.428 11.6104 24.7931 10.234C24.9336 9.70038 25.1162 8.84365 23.8381 8.84365C22.5601 8.84365 20.5096 8.9279 20.1584 8.9279C19.6528 8.61896 17.5603 7.42512 17.1951 7.05997C16.8721 6.80717 14.9058 5.65553 12.6306 7.57965ZM17.1951 8.36616C17.6726 8.6751 18.0658 8.94198 18.0658 8.9841C18.0658 9.01221 16.858 9.04025 15.3833 9.04025C12.5182 9.04025 12.4621 9.01221 13.4593 8.3942C14.8918 7.48133 15.8047 7.48133 17.1951 8.36616ZM23.1921 14.321C23.0797 14.8828 22.4758 15.1356 22.0685 14.8126C21.7736 14.5879 21.4927 14.5317 20.3551 14.5317C20.004 14.5317 13.9648 14.5036 11.184 14.7002C8.74024 14.8687 10.0464 15.8378 11.3385 16.0064C12.42 16.1468 21.1276 15.8098 20.959 16.0766C20.8748 16.217 18.122 18.2394 16.3103 19.7141C15.9311 19.5175 8.86667 15.9221 8.59979 15.9221C8.36107 15.9221 8.19252 10.4728 8.2066 10.4588C8.24872 10.4026 16.4085 10.1779 23.1078 10.1779C23.3325 12.2565 23.4589 12.9728 23.1921 14.321ZM16.3384 12.2003C15.4536 13.0851 16.4226 13.4222 19.6669 13.366C22.5741 13.3098 22.7988 13.2537 22.2371 12.6076C21.7455 12.0177 16.844 11.6807 16.3384 12.2003Z" fill="#006B99"/>
</svg>
