<svg width="32" height="33" viewBox="0 0 32 33" fill="none" xmlns="http://www.w3.org/2000/svg">
<path d="M27.6133 17.163C26.585 10.8224 22.1762 6.16431 18.2503 7.27041C17.4246 7.50407 16.7703 8.04935 14.1375 10.7757C12.7665 12.1934 12.3459 12.5361 12.1122 12.4582C9.5573 11.4611 7.95264 12.7074 7.96818 15.6986C7.96818 17.2877 8.04614 17.7083 8.56023 19.3129C8.70045 19.7335 6.92439 21.3849 4.69662 23.7373C2.90505 25.3731 4.79008 25.8717 7.48527 24.9992C12.1278 23.5037 11.4111 23.566 13.0157 24.4695C15.6486 25.9496 19.076 26.4948 20.6339 25.6847C20.9455 25.5289 21.1169 25.2018 21.0857 24.8435C21.0857 24.8279 20.9455 23.3011 20.9455 23.3167C23.0798 22.4599 25.6503 21.5874 26.8655 20.715C28.0806 19.827 27.9092 18.9702 27.6133 17.163ZM7.46973 23.5504C7.29833 23.5504 9.33917 21.307 9.47939 21.1513C9.51052 21.3382 9.94676 22.0392 10.5699 22.4599C10.5855 22.5378 7.75017 23.5504 7.46973 23.5504ZM23.2511 20.1386C22.3787 20.3411 19.6368 21.4316 18.671 21.9769C17.9699 22.3664 17.9387 22.4132 18.0322 22.9117C18.3749 24.8123 18.4684 24.7033 16.8171 24.2826C13.0781 23.3167 8.74717 15.979 10.4609 13.502C10.9438 12.8009 11.6137 13.6889 11.6605 15.1066C11.7072 16.6022 13.0313 19.0637 13.9661 19.6712C14.5114 20.0296 14.7917 19.5934 14.6515 19.3129C12.8444 15.9791 13.1404 15.091 13.265 14.5925C13.265 14.5925 17.2377 10.5732 17.5649 10.2148C18.7644 8.93738 19.8238 8.87507 20.9922 9.99676C23.1421 12.0843 24.7935 15.4026 25.2141 18.4405C25.3076 19.2506 24.6533 19.827 23.2511 20.1386Z" fill="#006B99"/>
<path d="M23.3603 17.7708C21.5688 18.721 18.0011 12.1156 19.6525 10.916C20.4003 10.3707 19.2474 9.70083 18.6242 10.4019C17.5805 11.5859 18.5932 18.0667 22.8929 18.8145C23.6719 18.9548 24.3106 18.8145 24.373 18.2849C24.4353 17.8331 23.8433 17.5059 23.3603 17.7708Z" fill="#006B99"/>
</svg>
