<svg width="32" height="33" viewBox="0 0 32 33" fill="none" xmlns="http://www.w3.org/2000/svg">
<path d="M18.3144 15.7539C18.6596 15.7539 18.8943 15.5882 19.129 15.1463C19.9713 13.5722 20.6616 13.4617 21.0345 14.8149C21.4073 16.1405 22.8158 16.2786 22.8158 14.9944C22.8158 13.5722 20.5789 12.4123 18.9771 12.9923C17.7896 13.4341 17.2374 15.7539 18.3144 15.7539Z" fill="#006B99"/>
<path d="M10.9132 16.1819C10.9132 14.953 11.7555 14.4559 12.1559 15.4363C12.6116 16.5271 13.4124 16.8447 13.7162 16.0438C14.2823 14.5802 11.2446 13.1442 9.87759 14.2212C9.33912 14.6493 8.8558 15.9058 9.04914 16.4029C9.28385 17.0242 10.9132 16.8171 10.9132 16.1819Z" fill="#006B99"/>
<path d="M11.8659 23.1133C15.5665 24.7565 19.3222 24.2594 21.7938 21.8016C24.3897 19.2195 23.3956 16.527 20.0403 17.0379C19.7226 17.0793 18.7837 17.4245 17.969 17.7973C16.3121 18.5429 15.2904 18.5981 12.9982 18.0458C9.22862 17.1621 8.26205 21.5254 11.8659 23.1133ZM21.421 18.1011C22.0562 18.9019 21.7662 20.2689 20.7859 21.194C20.1369 21.8016 20.206 21.8568 19.7641 20.338C19.5708 19.6614 19.3499 18.971 19.267 18.7915C19.0185 18.1563 20.9792 17.5349 21.421 18.1011ZM17.2787 19.0538C18.0933 18.8329 18.0934 18.8191 18.4661 20.6003C18.8804 22.561 18.8804 22.5887 18.1762 22.8372C16.8092 23.3205 16.961 23.2928 16.6296 19.2195L17.2787 19.0538ZM13.9786 19.2057H15.5112C15.5112 22.0916 15.5527 22.0501 15.7598 23.0996L15.0142 22.9614C13.8681 22.7544 13.9786 22.6715 13.9786 19.2057ZM12.4044 18.7501C12.8877 18.8743 13.0949 22.2849 12.6254 22.2849C12.1835 22.2849 11.1617 21.0283 11.0236 20.2965C10.8027 19.0952 11.3551 18.4739 12.4044 18.7501Z" fill="#006B99"/>
<path d="M20.855 7.89698C18.6872 6.80619 18.632 7.22044 20.6756 9.20875C27.0686 15.4085 25.3426 24.7427 17.6792 25.5021C11.728 26.0958 7.48894 22.4229 7.59942 16.8998C7.68228 12.5089 10.5681 7.91083 15.3181 7.35851C16.2708 7.24802 16.2984 7.22044 15.8704 6.98568C15.2076 6.61285 13.2745 6.68191 12.1008 7.09617C10.5682 7.64849 9.00783 8.7807 7.7927 10.2444C4.74117 13.8896 5.07259 19.6199 7.47515 23.0167C10.4715 27.2557 20.5099 27.9876 24.0308 24.218C28.4494 19.4957 26.7648 10.8795 20.855 7.89698Z" fill="#006B99"/>
</svg>
